<svg xmlns="http://www.w3.org/2000/svg" width="512" height="512" viewBox="0 0 380.719 380.719" enable-background="new 0 0 380.719 380.719"><path d="M250.753 250.602c-15.116 15.708-35.136 25.387-57.164 25.387-22.604 0-43.129-10.179-58.367-26.619-58.285 18.775-68.625 64.809-68.625 82.18v49.17h247.524v-36.564c.001-18.231-6.459-71.77-63.368-93.554zm-122.228-138.682v58.57c0 3.793 2.498 6.936 5.914 8.086l-.035.563c0 30.575 16.132 56.554 38.713 66.569l.546.256c1.784.744 3.603 1.43 5.473 1.986.384.117.75.244 1.133.35 1.714.465 3.451.824 5.199 1.127.488.081.977.197 1.459.256 2.189.29 4.403.476 6.663.476 2.236 0 4.427-.174 6.599-.464.465-.059.906-.175 1.337-.244 1.777-.291 3.544-.651 5.263-1.127l.953-.291c1.905-.558 3.765-1.231 5.577-1.998l.349-.163c22.796-9.876 39.108-35.983 39.108-66.732v-.25c4.183-.599 7.459-4.049 7.459-8.4v-63.031c10.434-5.24 19.218-12.45 24.457-22.308 10.794-20.286 11.631-39.933 2.382-55.328-9.225-15.348-27.234-24.138-49.438-24.138-15.871 0-30.08 6.959-41.723 15.778-10.387-11.508-30.458-22-51.889-21.442-13.844.36-33.468 5.484-48.421 27.902-7.709 11.525-10.067 23.731-7.029 36.25 5.757 23.662 29.825 41.247 39.951 47.747zm-18.55-74.411c8.697-13.037 20.298-19.833 34.456-20.188 15.441-.36 31.016 7.331 38.499 15.586-11.787 11.932-18.915 23.476-19.52 24.486-2.463 4.066-1.168 9.37 2.91 11.857 4.084 2.475 9.399 1.191 11.886-2.899.262-.43 26.84-43.367 59.418-43.367 15.977 0 28.582 5.734 34.601 15.737 5.995 9.969 4.984 23.568-2.835 38.301-14.326 26.961-75.486 28.054-97.858 26.194-4.746-.412-8.946 3.155-9.324 7.913-.407 4.764 3.125 8.946 7.889 9.341.959.082 7.482.593 17.033.593 14.569 0 36.157-1.208 55.793-6.937v47.712h-97.086v-54.788c0-3.155-1.714-6.042-4.462-7.581-.313-.151-30.638-17.283-35.994-39.428-1.866-7.707-.367-15.085 4.594-22.532z" fill="#fff"/></svg>